# xmcd
#
# Track frame offsets: 
#        150
#        24468
#        49789
#        68064
#        85344
#        105040
#        127278
#        158627
#        175854
#        195304
#        210317
#        228625
#        251175
#        268475
#        288500
#        317667
#        334681
#
# Disc length: 4624 seconds
#
# Revision: 0
# Processed by: cddbd v1.5.2PL0 Copyright (c) Steve Scherf et al.
# Submitted via: ExactAudioCopyFreeDBPlugin 1.0
#
DISCID=f1120e11
DTITLE=Various Artist - Deep Blues Sea
DYEAR=2016
DGENRE=Blues
TTITLE0=Johnny Winter - Don't Take Advantage Of Me
TTITLE1=Luther Allison - All The King's Horses
TTITLE2=Shemekia Copeland - Outskiets Of Love
TTITLE3=Selwyn Birchwood - Don't Call No Ambulance
TTITLE4=Roomful Of Blues - The Love You Lost On The Way
TTITLE5=Jarekus Singleton - I Refuse To Lose
TTITLE6=Albert Collins - Lights Are On But Nobody's Home
TTITLE7=Tommy Castro and The Painkillers - Got A Lot
TTITLE8=Curtis Selgado - A Woman Or The Blues
TTITLE9=Michael "Ironman" Burks - Love Disease
TTITLE10=Rick Estrin and The Nightcats - Broke And Lonesome
TTITLE11=Lil' Ed and The Blues Imperials - Iceicles In My Meatloaf
TTITLE12=Toronzo Cannon - Bad Contract
TTITLE13=Marcia Ball - Louella
TTITLE14=Son Seals - Sitting Hare Thinking
TTITLE15=Elvin Bishop - Can't Even Do Wrong Right
TTITLE16=Hound Dog Taylor - Take Five
EXTD=
EXTT0=
EXTT1=
EXTT2=
EXTT3=
EXTT4=
EXTT5=
EXTT6=
EXTT7=
EXTT8=
EXTT9=
EXTT10=
EXTT11=
EXTT12=
EXTT13=
EXTT14=
EXTT15=
EXTT16=
PLAYORDER=
